<svg width="283" height="448" viewBox="0 0 283 448" fill="none" xmlns="http://www.w3.org/2000/svg">
<path d="M3.62968 447.608C-1.00074 391.528 17.8297 259.612 130.195 180.587C171.868 151.775 258.612 75.3216 272.194 0C282.484 39.1014 290.716 132.43 241.325 192.934C225.376 210.942 191.008 247.573 181.129 250.043H210.455C201.194 261.876 168.782 287.395 113.216 294.804C113.216 296.038 139.97 296.347 153.347 296.347C120.934 307.666 54.8731 334.625 49.9339 351.912C51.4774 351.912 77.7165 265.478 114.76 237.695C98.8106 251.072 63.5165 286.16 49.9339 319.499C38.1006 341.622 16.5949 392.351 25.2383 418.282C26.7818 418.282 8.2601 425.999 3.62968 447.608Z" stroke="url(#paint0_linear_1_13)" stroke-width="5"/>
<defs>
<linearGradient id="paint0_linear_1_13" x1="287.5" y1="-12" x2="9.49999" y2="456" gradientUnits="userSpaceOnUse">
<stop stop-color="#032C95"/>
<stop offset="1" stop-color="#00BBFF"/>
</linearGradient>
</defs>
</svg>
