<svg width="512" height="236" viewBox="0 0 512 236" fill="none" xmlns="http://www.w3.org/2000/svg">
<path d="M17.3089 227.687C15.0375 200.178 24.2744 135.47 79.3925 96.7055C99.8347 82.5726 142.385 45.0701 149.047 8.12275C154.095 27.3031 158.133 73.0834 133.905 102.762C126.081 111.595 109.223 129.564 104.377 130.776H118.763C114.22 136.58 98.3204 149.098 71.0642 152.732C71.0642 153.338 84.1876 153.489 90.7492 153.489C74.8498 159.041 42.4452 172.266 40.0224 180.745C40.7795 180.745 53.6505 138.347 71.8213 124.719C63.9978 131.28 46.685 148.492 40.0224 164.846C34.2178 175.698 23.6687 200.582 27.9085 213.301C28.6656 213.301 19.5802 217.087 17.3089 227.687Z" stroke="url(#paint0_linear_1_8)" stroke-width="1.51423"/>
<path d="M182.305 132.267H219.875V89.1708H182.305V132.267ZM229.821 89.1708V132.267L220.98 141.107H182.305V157.682H172.359V80.3306H220.98L229.821 89.1708ZM240.884 157.682V80.3306H250.829V157.682H240.884ZM319.336 95.8009V157.682H274.03L264.085 147.737V95.8009H274.03V148.842H309.391V95.8009H319.336ZM332.609 95.8009H409.961L421.011 106.851V157.682H411.066V104.641H381.783V157.682H371.838V104.641H342.555V157.682H332.609V95.8009ZM433.158 147.737V122.321L477.359 121.216V104.641H435.368V95.8009H477.359L487.304 105.746V157.682H443.103L433.158 147.737ZM443.103 131.162V148.842H477.359V128.952L443.103 131.162Z" fill="url(#paint1_linear_1_8)"/>
<defs>
<linearGradient id="paint0_linear_1_8" x1="156.555" y1="2.23641" x2="20.1884" y2="231.803" gradientUnits="userSpaceOnUse">
<stop stop-color="#032C95"/>
<stop offset="1" stop-color="#00BBFF"/>
</linearGradient>
<linearGradient id="paint1_linear_1_8" x1="330.229" y1="46.6822" x2="330.229" y2="190.682" gradientUnits="userSpaceOnUse">
<stop stop-color="#00BBFF"/>
<stop offset="1" stop-color="#007099"/>
</linearGradient>
</defs>
</svg>
